<?xml version="1.0" encoding="utf-8"?>
<!-- Generator: Adobe Illustrator 25.4.1, SVG Export Plug-In . SVG Version: 6.00 Build 0)  -->
<svg version="1.1" id="layer" xmlns="http://www.w3.org/2000/svg" xmlns:xlink="http://www.w3.org/1999/xlink" x="0px" y="0px"
	 viewBox="0 0 337.5 379.8" style="enable-background:new 0 0 337.5 379.8;" xml:space="preserve">
<style type="text/css">
	
		.st0{clip-path:url(#SVGID_00000048487514455577320180000009461276765252280507_);fill:url(#SVGID_00000026149858873749555960000017323941190019683255_);}
	.st1{fill:#009BDB;}
</style>
<path d="M329.3,209.9l8.2-26.7V0.3C241.8,0.3,231.9,37,231.9,72v200.9c0,10.4-1,21.4-3.1,32.2C279.5,295.8,312.6,264.5,329.3,209.9"
	/>
<g>
	<g>
		<defs>
			<path id="SVGID_1_" d="M183.6,316.3c-28.2-1.3-49.8-8.4-66.6-18.8c11.4,49.4,53.9,73.6,55.9,74.8l12.5,6.9
				c96-6.4,152.1-68.3,152.1-149.3v-17.5C314.7,286.8,261.6,319.9,183.6,316.3"/>
		</defs>
		<clipPath id="SVGID_00000026879616660178187780000013966307073922239409_">
			<use xlink:href="#SVGID_1_"  style="overflow:visible;"/>
		</clipPath>
		
			<linearGradient id="SVGID_00000117650247081894485880000011040497760632145315_" gradientUnits="userSpaceOnUse" x1="-884.7261" y1="113.4672" x2="-876.0545" y2="113.4672" gradientTransform="matrix(25.4396 0 0 25.4396 22623.9766 -2590.7092)">
			<stop  offset="0" style="stop-color:#727171"/>
			<stop  offset="1" style="stop-color:#B5B5B6"/>
		</linearGradient>
		
			<rect x="116.9" y="212.4" style="clip-path:url(#SVGID_00000026879616660178187780000013966307073922239409_);fill:url(#SVGID_00000117650247081894485880000011040497760632145315_);" width="220.6" height="166.9"/>
	</g>
</g>
<path class="st1" d="M84.5,42H63.3V21.1h21.2V42z M105.6,52.7H84.5v20.9h21.1V52.7z M84.4,79H63.5v20.9h20.9V79z M63.2,110.3H42.4
	v20.9h20.9L63.2,110.3L63.2,110.3z M21.1,0H0v21.1h21.1V0z M42.3,172.9H21.1V57.8H0v172.1c0,85.6,62.7,149.9,168.8,149.9
	c0,0-63.2-34.8-63.2-107V120.7H84.5v77.8H63.3V152h-21V172.9z M63.2,42.3H42.4v20.9h20.9L63.2,42.3L63.2,42.3z"/>
</svg>
